# xmcd
#
# Track frame offsets:
# 150
# 13958
# 27596
# 39698
# 50501
# 62346
# 75712
# 86247
# 96211
# 105414
# 116359
# 127294
# 139345
# 150403
# 169795
# 183697
# 193427
# 202917
# 214919
# 229215
# 241323
#
# Disc length: 3383 seconds
#
#
# Revision: 1
# Processed by: cddbd v1.5.1PL2 Copyright (c) Steve Scherf et al.
# Submitted via: FreeRIP 2.944 
#
DISCID=320d3515
DTITLE=Koko Taylor - Wang Dang Doodle
DYEAR=1900
DGENRE=Blues
TTITLE0=I Got What It Takes
TTITLE1=What Kind Of Man Is This
TTITLE2=Don't Mess With the Messer
TTITLE3=Whatever I Am, You Made Me
TTITLE4=I'm A Little Mixed Up
TTITLE5=Wang Dang Doodle
TTITLE6=Blues Heaven
TTITLE7=(I Got) All You Need
TTITLE8=Tell Me The Truth
TTITLE9=Good Advice
TTITLE10=Egg Or The Hen
TTITLE11=Just Love Me
TTITLE12=Fire
TTITLE13=Insane Asylum
TTITLE14=Separate Or Integrate
TTITLE15=I Don't Care Who Knows
TTITLE16=Love You Like A Woman
TTITLE17=Yes, It's Good For You
TTITLE18=Twenty-Nine Ways
TTITLE19=Nitty Gritty
TTITLE20=I Love A Lover Like You
EXTD=>Original recordings digitally remastered
EXTT0=
EXTT1=
EXTT2=
EXTT3=
EXTT4=
EXTT5=
EXTT6=
EXTT7=
EXTT8=
EXTT9=
EXTT10=
EXTT11=
EXTT12=
EXTT13=
EXTT14=
EXTT15=
EXTT16=
EXTT17=
EXTT18=
EXTT19=
EXTT20=
PLAYORDER=
